# xmcd
#
# Track frame offsets:
# 150
# 15556
# 30734
# 48120
# 67840
# 84174
# 100720
# 113700
# 129960
# 148112
# 159268
# 178267
# 194004
# 209662
# 223759
#
# Disc length: 3188 seconds
#
#
# Revision: 0
# Processed by: cddbd v1.5.2PL0 Copyright (c) Steve Scherf et al.
# Submitted via: FreeRIP 2.951 
#
DISCID=cb0c720f
DTITLE=Leonardo - Brincadeira Tem Hora
DYEAR=2003
DGENRE=Sertanejo
TTITLE0=Brincadeira Tem Hora
TTITLE1=Escorpião
TTITLE2=Quero Acender Teu Fogo - (Candela)
TTITLE3=Eu Sei Que  Te Perdi - (Sexed Up)
TTITLE4=Mulher Bandida
TTITLE5=Deve Ser Amor
TTITLE6=Diz Pro Meu Coração - ( Mary Jane)
TTITLE7=Ai, Que Saudade!
TTITLE8=O Que Me Atrai Em Você
TTITLE9=O Amor Se Vai - (Se Vá, Se Vá)
TTITLE10=Volta Ao Começo (Q. Beber Hasta Perder El Control)
TTITLE11=Metade Do Meu Coração
TTITLE12=Era Só Pra Ficar
TTITLE13=Vai E Vem
TTITLE14=Rainha Do Meu Rodeio
EXTD=SAULO
EXTT0=
EXTT1=
EXTT2=
EXTT3=
EXTT4=
EXTT5=
EXTT6=
EXTT7=
EXTT8=
EXTT9=
EXTT10=
EXTT11=
EXTT12=
EXTT13=
EXTT14=
PLAYORDER=
